<?xml version="1.0" encoding="UTF-8"?>
<svg width="50px" height="40px" viewBox="0 0 50 40" version="1.1" xmlns="http://www.w3.org/2000/svg" xmlns:xlink="http://www.w3.org/1999/xlink">
    <!-- Generator: Sketch 43.1 (39012) - http://www.bohemiancoding.com/sketch -->
    <title>Group</title>
    <desc>Created with Sketch.</desc>
    <defs></defs>
    <g id="Page-1" stroke="none" stroke-width="1" fill="none" fill-rule="evenodd">
        <g id="Group">
            <g id="Discord-Logo-Black" transform="translate(11.000000, 4.000000)" fill-rule="nonzero" fill="#000000">
                <path d="M11.104,13.424 C10.192,13.424 9.472,14.224 9.472,15.2 C9.472,16.176 10.208,16.976 11.104,16.976 C12.016,16.976 12.736,16.176 12.736,15.2 C12.752,14.224 12.016,13.424 11.104,13.424 Z M16.944,13.424 C16.032,13.424 15.312,14.224 15.312,15.2 C15.312,16.176 16.048,16.976 16.944,16.976 C17.856,16.976 18.576,16.176 18.576,15.2 C18.576,14.224 17.856,13.424 16.944,13.424 Z" id="Shape"></path>
                <path d="M24.72,0 L3.28,0 C1.472,0 0,1.472 0,3.296 L0,24.928 C0,26.752 1.472,28.224 3.28,28.224 L21.424,28.224 L20.576,25.264 L22.624,27.168 L24.56,28.96 L28,32 L28,3.296 C28,1.472 26.528,0 24.72,0 Z M18.544,20.896 C18.544,20.896 17.968,20.208 17.488,19.6 C19.584,19.008 20.384,17.696 20.384,17.696 C19.728,18.128 19.104,18.432 18.544,18.64 C17.744,18.976 16.976,19.2 16.224,19.328 C14.688,19.616 13.28,19.536 12.08,19.312 C11.168,19.136 10.384,18.88 9.728,18.624 C9.36,18.48 8.96,18.304 8.56,18.08 C8.512,18.048 8.464,18.032 8.416,18 C8.384,17.984 8.368,17.968 8.352,17.952 C8.064,17.792 7.904,17.68 7.904,17.68 C7.904,17.68 8.672,18.96 10.704,19.568 C10.224,20.176 9.632,20.896 9.632,20.896 C6.096,20.784 4.752,18.464 4.752,18.464 C4.752,13.312 7.056,9.136 7.056,9.136 C9.36,7.408 11.552,7.456 11.552,7.456 L11.712,7.648 C8.832,8.48 7.504,9.744 7.504,9.744 C7.504,9.744 7.856,9.552 8.448,9.28 C10.16,8.528 11.52,8.32 12.08,8.272 C12.176,8.256 12.256,8.24 12.352,8.24 C13.328,8.112 14.432,8.08 15.584,8.208 C17.104,8.384 18.736,8.832 20.4,9.744 C20.4,9.744 19.136,8.544 16.416,7.712 L16.64,7.456 C16.64,7.456 18.832,7.408 21.136,9.136 C21.136,9.136 23.44,13.312 23.44,18.464 C23.44,18.464 22.08,20.784 18.544,20.896 L18.544,20.896 Z" id="Shape"></path>
            </g>
        </g>
    </g>
</svg>