<?xml version="1.0" encoding="UTF-8"?>
<svg width="50px" height="40px" viewBox="0 0 50 40" version="1.1" xmlns="http://www.w3.org/2000/svg" xmlns:xlink="http://www.w3.org/1999/xlink">
    <!-- Generator: Sketch 43.1 (39012) - http://www.bohemiancoding.com/sketch -->
    <title>Group</title>
    <desc>Created with Sketch.</desc>
    <defs></defs>
    <g id="Page-1" stroke="none" stroke-width="1" fill="none" fill-rule="evenodd">
        <g id="Group">
            <path d="M26.7460619,6.00477039 C26.4452817,5.98289539 26.1062185,6.03758359 25.8054369,6.14149019 C24.5859067,6.54617699 23.9515317,7.84774019 24.3562185,9.06180199 L25.3296567,11.9164902 L19.8226251,13.764927 L18.9148119,11.008677 C18.5101251,9.79461519 17.2085619,9.16024019 15.9945001,9.56492699 C14.7804369,9.96961519 14.1077817,11.271177 14.5179369,12.4852402 L15.4257501,15.208677 L12.5655935,16.1821152 C11.3515317,16.586802 10.7171567,17.9266454 11.1218435,19.1407086 C11.5265317,20.3547704 12.8280935,20.9891454 14.0421567,20.5844586 L16.8968435,19.6438336 L18.7452817,25.118052 L15.9890317,26.0258652 C14.7749685,26.430552 14.1405935,27.7321152 14.5452817,28.946177 C14.9554369,30.1602402 16.2570001,30.8328954 17.4710619,30.4227402 L20.1945001,29.5203954 L21.1679369,32.3750836 C21.5726251,33.5891454 22.9070001,34.2235204 24.1210619,33.8188336 C25.3405935,33.4141454 25.9695001,32.1125836 25.5702817,30.8985204 L24.6241869,28.0438336 L30.1038751,26.1953954 L31.0116869,28.9516454 C31.4163751,30.1657086 32.7179369,30.8000836 33.9320001,30.3953954 C35.1460619,29.9907086 35.8132501,28.683677 35.4085619,27.4750836 L34.5007501,24.7516454 L37.3554369,23.7782086 C38.5695001,23.368052 39.2093435,22.033677 38.7991869,20.8196152 C38.3945001,19.605552 37.0929369,18.971177 35.8788751,19.3758652 L33.0241869,20.3164902 L31.1757501,14.8422704 L33.9320001,13.9344586 C35.1460619,13.5297704 35.7859067,12.2282086 35.3757501,11.0141454 C34.9710619,9.80008359 33.6695001,9.12742699 32.4554369,9.53211519 L29.7320001,10.439927 L28.7585619,7.58524019 C28.4523119,6.67195859 27.6429369,6.07586519 26.7460619,6.00477039 Z M26.7788751,16.3188336 L28.6273119,21.793052 L23.1476251,23.6414902 L21.2991869,18.1672704 L26.7788751,16.3188336 Z" id="Shape" fill="#000000" fill-rule="nonzero"></path>
        </g>
    </g>
</svg>