<?xml version="1.0" encoding="UTF-8"?>
<svg width="14" height="13" viewBox="0 0 14 13" version="1.1" xmlns="http://www.w3.org/2000/svg" xmlns:xlink="http://www.w3.org/1999/xlink">
    <path fill="#424242" d="M12.85807,0.0131139552 L1.14192966,0.0131139552 C0.512285144,0.0131139552 0,0.526036609 0,1.15649206 L0,8.01544656 C0,8.64592939 0.512285144,9.15885204 1.141957,9.15885204 L1.80955464,9.15885204 L1.80955464,11.9809259 C1.80955464,12.1127773 1.8889062,12.2316242 2.0105312,12.2820815 C2.05080854,12.2987819 2.09308198,12.3068857 2.13502729,12.3068857 C2.21976557,12.3068857 2.30305463,12.2737586 2.36531635,12.2114194 L5.41406237,9.15882466 L12.8580153,9.15882466 C13.4876872,9.15882466 13.999945,8.64590201 13.999945,8.01541918 L13.999945,1.15649206 C13.9999997,0.526036609 13.4877145,0.0131139552 12.85807,0.0131139552 Z M12.85807,8.50687766 L5.27903893,8.50687766 C5.19482018,8.50687766 5.11831237,8.53918343 5.06053503,8.59172139 C5.0600155,8.59218681 5.05941394,8.59276174 5.05889441,8.59322716 C5.05492956,8.59686841 5.05088269,8.60042752 5.04710925,8.60428779 L2.460664,11.1939243 L2.460664,8.83283747 C2.460664,8.82150307 2.46008978,8.81145543 2.45894135,8.80258503 C2.44368353,8.63675783 2.30453119,8.50687766 2.13491792,8.50687766 L1.14192966,8.50687766 C0.871281228,8.50687766 0.651109359,8.28640442 0.651109359,8.01541918 L0.651109359,1.15649206 C0.651109359,0.885506823 0.871281228,0.665060961 1.14192966,0.665060961 L12.8580427,0.665060961 C13.1287184,0.665060961 13.348863,0.885506823 13.348863,1.15649206 L13.348863,8.01544656 L13.348863,8.01544656 C13.348863,8.28640442 13.1286911,8.50687766 12.85807,8.50687766 Z" id="Shape"></path>
</svg>